<svg xmlns="http://www.w3.org/2000/svg" viewBox="0 0 240 200" role="img"><title>肉包插圖</title><rect width="240" height="200" rx="22" fill="#f4f3e9"/><ellipse cx="120" cy="181" rx="83" ry="8" fill="#425c3d" opacity=".07"/><ellipse cx="120" cy="140" rx="98" ry="35" fill="#e6ece5"/><ellipse cx="120" cy="134" rx="94" ry="31" fill="#fffdf6"/><ellipse cx="120" cy="134" rx="81" ry="23" fill="#edf0e5"/><path d="M56 121q-12-48 47-74 16-8 31 0 59 26 48 74-15 41-126 0Z" fill="#faf0d7" stroke="#dccbab" stroke-width="2" stroke-linecap="round" stroke-linejoin="round"/><path d="M104 47q-12 19-2 37m11-40q-5 15 0 29m8-30q3 18 13 29m-7-25q18 7 24 22" fill="none" stroke="#d9c3a1" stroke-width="3" stroke-linecap="round" stroke-linejoin="round"/></svg>