<svg xmlns="http://www.w3.org/2000/svg" viewBox="0 0 240 200" role="img"><title>榴槤插圖</title><rect width="240" height="200" rx="22" fill="#f4f3e9"/><ellipse cx="120" cy="181" rx="83" ry="8" fill="#425c3d" opacity=".07"/><ellipse cx="110" cy="105" rx="72" ry="63" fill="#a6a477"/><path d="M49 60l6-10 7 13Z" fill="#8f9065" stroke="none" stroke-width="2" stroke-linecap="round" stroke-linejoin="round"/><path d="M68 83l6-10 7 13Z" fill="#bfc094" stroke="none" stroke-width="2" stroke-linecap="round" stroke-linejoin="round"/><path d="M87 106l6-10 7 13Z" fill="#8f9065" stroke="none" stroke-width="2" stroke-linecap="round" stroke-linejoin="round"/><path d="M106 129l6-10 7 13Z" fill="#bfc094" stroke="none" stroke-width="2" stroke-linecap="round" stroke-linejoin="round"/><path d="M125 63l6-10 7 13Z" fill="#8f9065" stroke="none" stroke-width="2" stroke-linecap="round" stroke-linejoin="round"/><path d="M144 86l6-10 7 13Z" fill="#bfc094" stroke="none" stroke-width="2" stroke-linecap="round" stroke-linejoin="round"/><path d="M163 109l6-10 7 13Z" fill="#8f9065" stroke="none" stroke-width="2" stroke-linecap="round" stroke-linejoin="round"/><path d="M58 132l6-10 7 13Z" fill="#bfc094" stroke="none" stroke-width="2" stroke-linecap="round" stroke-linejoin="round"/><path d="M77 66l6-10 7 13Z" fill="#8f9065" stroke="none" stroke-width="2" stroke-linecap="round" stroke-linejoin="round"/><path d="M96 89l6-10 7 13Z" fill="#bfc094" stroke="none" stroke-width="2" stroke-linecap="round" stroke-linejoin="round"/><path d="M115 112l6-10 7 13Z" fill="#8f9065" stroke="none" stroke-width="2" stroke-linecap="round" stroke-linejoin="round"/><path d="M134 135l6-10 7 13Z" fill="#bfc094" stroke="none" stroke-width="2" stroke-linecap="round" stroke-linejoin="round"/><path d="M153 69l6-10 7 13Z" fill="#8f9065" stroke="none" stroke-width="2" stroke-linecap="round" stroke-linejoin="round"/><path d="M172 92l6-10 7 13Z" fill="#bfc094" stroke="none" stroke-width="2" stroke-linecap="round" stroke-linejoin="round"/><path d="M67 115l6-10 7 13Z" fill="#8f9065" stroke="none" stroke-width="2" stroke-linecap="round" stroke-linejoin="round"/><path d="M86 138l6-10 7 13Z" fill="#bfc094" stroke="none" stroke-width="2" stroke-linecap="round" stroke-linejoin="round"/><path d="M105 72l6-10 7 13Z" fill="#8f9065" stroke="none" stroke-width="2" stroke-linecap="round" stroke-linejoin="round"/><path d="M124 95l6-10 7 13Z" fill="#bfc094" stroke="none" stroke-width="2" stroke-linecap="round" stroke-linejoin="round"/><path d="M143 118l6-10 7 13Z" fill="#8f9065" stroke="none" stroke-width="2" stroke-linecap="round" stroke-linejoin="round"/><path d="M162 141l6-10 7 13Z" fill="#bfc094" stroke="none" stroke-width="2" stroke-linecap="round" stroke-linejoin="round"/><path d="M57 75l6-10 7 13Z" fill="#8f9065" stroke="none" stroke-width="2" stroke-linecap="round" stroke-linejoin="round"/><path d="M76 98l6-10 7 13Z" fill="#bfc094" stroke="none" stroke-width="2" stroke-linecap="round" stroke-linejoin="round"/><path d="M95 121l6-10 7 13Z" fill="#8f9065" stroke="none" stroke-width="2" stroke-linecap="round" stroke-linejoin="round"/><path d="M114 144l6-10 7 13Z" fill="#bfc094" stroke="none" stroke-width="2" stroke-linecap="round" stroke-linejoin="round"/><path d="M133 78l6-10 7 13Z" fill="#8f9065" stroke="none" stroke-width="2" stroke-linecap="round" stroke-linejoin="round"/><path d="M152 101l6-10 7 13Z" fill="#bfc094" stroke="none" stroke-width="2" stroke-linecap="round" stroke-linejoin="round"/><path d="M171 124l6-10 7 13Z" fill="#8f9065" stroke="none" stroke-width="2" stroke-linecap="round" stroke-linejoin="round"/><path d="M66 147l6-10 7 13Z" fill="#bfc094" stroke="none" stroke-width="2" stroke-linecap="round" stroke-linejoin="round"/><path d="M85 81l6-10 7 13Z" fill="#8f9065" stroke="none" stroke-width="2" stroke-linecap="round" stroke-linejoin="round"/><path d="M104 104l6-10 7 13Z" fill="#bfc094" stroke="none" stroke-width="2" stroke-linecap="round" stroke-linejoin="round"/><path d="M123 127l6-10 7 13Z" fill="#8f9065" stroke="none" stroke-width="2" stroke-linecap="round" stroke-linejoin="round"/><path d="M142 61l6-10 7 13Z" fill="#bfc094" stroke="none" stroke-width="2" stroke-linecap="round" stroke-linejoin="round"/><path d="M161 84l6-10 7 13Z" fill="#8f9065" stroke="none" stroke-width="2" stroke-linecap="round" stroke-linejoin="round"/><path d="M56 107l6-10 7 13Z" fill="#bfc094" stroke="none" stroke-width="2" stroke-linecap="round" stroke-linejoin="round"/><path d="M75 130l6-10 7 13Z" fill="#8f9065" stroke="none" stroke-width="2" stroke-linecap="round" stroke-linejoin="round"/><path d="M94 64l6-10 7 13Z" fill="#bfc094" stroke="none" stroke-width="2" stroke-linecap="round" stroke-linejoin="round"/><path d="M113 87l6-10 7 13Z" fill="#8f9065" stroke="none" stroke-width="2" stroke-linecap="round" stroke-linejoin="round"/><path d="M132 110l6-10 7 13Z" fill="#bfc094" stroke="none" stroke-width="2" stroke-linecap="round" stroke-linejoin="round"/><path d="M151 133l6-10 7 13Z" fill="#8f9065" stroke="none" stroke-width="2" stroke-linecap="round" stroke-linejoin="round"/><path d="M170 67l6-10 7 13Z" fill="#bfc094" stroke="none" stroke-width="2" stroke-linecap="round" stroke-linejoin="round"/><path d="M65 90l6-10 7 13Z" fill="#8f9065" stroke="none" stroke-width="2" stroke-linecap="round" stroke-linejoin="round"/><path d="M84 113l6-10 7 13Z" fill="#bfc094" stroke="none" stroke-width="2" stroke-linecap="round" stroke-linejoin="round"/><path d="M103 136l6-10 7 13Z" fill="#8f9065" stroke="none" stroke-width="2" stroke-linecap="round" stroke-linejoin="round"/><path d="M122 70l6-10 7 13Z" fill="#bfc094" stroke="none" stroke-width="2" stroke-linecap="round" stroke-linejoin="round"/><path d="M141 93l6-10 7 13Z" fill="#8f9065" stroke="none" stroke-width="2" stroke-linecap="round" stroke-linejoin="round"/><path d="M160 116l6-10 7 13Z" fill="#bfc094" stroke="none" stroke-width="2" stroke-linecap="round" stroke-linejoin="round"/><path d="M55 139l6-10 7 13Z" fill="#8f9065" stroke="none" stroke-width="2" stroke-linecap="round" stroke-linejoin="round"/><path d="M74 73l6-10 7 13Z" fill="#bfc094" stroke="none" stroke-width="2" stroke-linecap="round" stroke-linejoin="round"/><path d="M93 96l6-10 7 13Z" fill="#8f9065" stroke="none" stroke-width="2" stroke-linecap="round" stroke-linejoin="round"/><path d="M112 119l6-10 7 13Z" fill="#bfc094" stroke="none" stroke-width="2" stroke-linecap="round" stroke-linejoin="round"/><path d="M131 142l6-10 7 13Z" fill="#8f9065" stroke="none" stroke-width="2" stroke-linecap="round" stroke-linejoin="round"/><path d="M150 76l6-10 7 13Z" fill="#bfc094" stroke="none" stroke-width="2" stroke-linecap="round" stroke-linejoin="round"/><path d="M169 99l6-10 7 13Z" fill="#8f9065" stroke="none" stroke-width="2" stroke-linecap="round" stroke-linejoin="round"/><path d="M64 122l6-10 7 13Z" fill="#bfc094" stroke="none" stroke-width="2" stroke-linecap="round" stroke-linejoin="round"/><path d="M83 145l6-10 7 13Z" fill="#8f9065" stroke="none" stroke-width="2" stroke-linecap="round" stroke-linejoin="round"/><path d="M102 79l6-10 7 13Z" fill="#bfc094" stroke="none" stroke-width="2" stroke-linecap="round" stroke-linejoin="round"/><path d="M121 102l6-10 7 13Z" fill="#8f9065" stroke="none" stroke-width="2" stroke-linecap="round" stroke-linejoin="round"/><path d="M140 125l6-10 7 13Z" fill="#bfc094" stroke="none" stroke-width="2" stroke-linecap="round" stroke-linejoin="round"/><path d="M159 148l6-10 7 13Z" fill="#8f9065" stroke="none" stroke-width="2" stroke-linecap="round" stroke-linejoin="round"/><path d="M54 82l6-10 7 13Z" fill="#bfc094" stroke="none" stroke-width="2" stroke-linecap="round" stroke-linejoin="round"/><path d="M73 105l6-10 7 13Z" fill="#8f9065" stroke="none" stroke-width="2" stroke-linecap="round" stroke-linejoin="round"/><path d="M92 128l6-10 7 13Z" fill="#bfc094" stroke="none" stroke-width="2" stroke-linecap="round" stroke-linejoin="round"/><path d="M111 62l6-10 7 13Z" fill="#8f9065" stroke="none" stroke-width="2" stroke-linecap="round" stroke-linejoin="round"/><path d="M130 85l6-10 7 13Z" fill="#bfc094" stroke="none" stroke-width="2" stroke-linecap="round" stroke-linejoin="round"/><path d="M149 108l6-10 7 13Z" fill="#8f9065" stroke="none" stroke-width="2" stroke-linecap="round" stroke-linejoin="round"/><path d="M168 131l6-10 7 13Z" fill="#bfc094" stroke="none" stroke-width="2" stroke-linecap="round" stroke-linejoin="round"/><path d="M154 67q54 26 28 86-66 39-68-29Z" fill="#e9e1b7" stroke="#a7a278" stroke-width="4" stroke-linecap="round" stroke-linejoin="round"/><path d="M147 94q24-29 35 3 14 39-22 45-32 11-24-15Z" fill="#e5c66f" stroke="none" stroke-width="2" stroke-linecap="round" stroke-linejoin="round"/></svg>