<svg xmlns="http://www.w3.org/2000/svg" viewBox="0 0 240 200" role="img"><title>乾麵插圖</title><rect width="240" height="200" rx="22" fill="#f4f3e9"/><ellipse cx="120" cy="181" rx="83" ry="8" fill="#425c3d" opacity=".07"/><path d="M39 109q8 63 81 64t81-64Z" fill="#91ada2" stroke="none" stroke-width="2" stroke-linecap="round" stroke-linejoin="round"/><ellipse cx="120" cy="109" rx="81" ry="28" fill="#f5f2e5"/><ellipse cx="120" cy="108" rx="72" ry="21" fill="#e7d5ae"/><path d="M57 85q22 -15 40 0t40 0t43 -2" fill="none" stroke="#d5b57e" stroke-width="4" stroke-linecap="round" stroke-linejoin="round"/><path d="M61 88q22 -15 40 0t40 0t43 -2" fill="none" stroke="#d5b57e" stroke-width="4" stroke-linecap="round" stroke-linejoin="round"/><path d="M65 91q22 -15 40 0t40 0t43 -2" fill="none" stroke="#d5b57e" stroke-width="4" stroke-linecap="round" stroke-linejoin="round"/><path d="M57 94q22 -15 40 0t40 0t43 -2" fill="none" stroke="#d5b57e" stroke-width="4" stroke-linecap="round" stroke-linejoin="round"/><path d="M61 97q22 -15 40 0t40 0t43 -2" fill="none" stroke="#d5b57e" stroke-width="4" stroke-linecap="round" stroke-linejoin="round"/><path d="M65 100q22 -15 40 0t40 0t43 -2" fill="none" stroke="#d5b57e" stroke-width="4" stroke-linecap="round" stroke-linejoin="round"/><path d="M57 103q22 -15 40 0t40 0t43 -2" fill="none" stroke="#d5b57e" stroke-width="4" stroke-linecap="round" stroke-linejoin="round"/><path d="M61 106q22 -15 40 0t40 0t43 -2" fill="none" stroke="#d5b57e" stroke-width="4" stroke-linecap="round" stroke-linejoin="round"/><path d="M65 109q22 -15 40 0t40 0t43 -2" fill="none" stroke="#d5b57e" stroke-width="4" stroke-linecap="round" stroke-linejoin="round"/><path d="M57 112q22 -15 40 0t40 0t43 -2" fill="none" stroke="#d5b57e" stroke-width="4" stroke-linecap="round" stroke-linejoin="round"/><path d="M61 115q22 -15 40 0t40 0t43 -2" fill="none" stroke="#d5b57e" stroke-width="4" stroke-linecap="round" stroke-linejoin="round"/><path d="M65 118q22 -15 40 0t40 0t43 -2" fill="none" stroke="#d5b57e" stroke-width="4" stroke-linecap="round" stroke-linejoin="round"/><path d="M57 121q22 -15 40 0t40 0t43 -2" fill="none" stroke="#d5b57e" stroke-width="4" stroke-linecap="round" stroke-linejoin="round"/><path d="M61 124q22 -15 40 0t40 0t43 -2" fill="none" stroke="#d5b57e" stroke-width="4" stroke-linecap="round" stroke-linejoin="round"/><path d="M65 127q22 -15 40 0t40 0t43 -2" fill="none" stroke="#d5b57e" stroke-width="4" stroke-linecap="round" stroke-linejoin="round"/><path d="M45 127q70 48 147 0" fill="none" stroke="#c1d2c7" stroke-width="3" stroke-linecap="round" stroke-linejoin="round"/><ellipse cx="97" cy="89" rx="3" ry="3" fill="#806342"/><ellipse cx="110" cy="96" rx="3" ry="3" fill="#806342"/><ellipse cx="123" cy="103" rx="3" ry="3" fill="#806342"/><ellipse cx="136" cy="110" rx="3" ry="3" fill="#806342"/><ellipse cx="104" cy="95" rx="3" ry="3" fill="#806342"/><ellipse cx="117" cy="102" rx="3" ry="3" fill="#806342"/><ellipse cx="130" cy="109" rx="3" ry="3" fill="#806342"/><ellipse cx="98" cy="94" rx="3" ry="3" fill="#806342"/><ellipse cx="111" cy="101" rx="3" ry="3" fill="#806342"/><ellipse cx="124" cy="108" rx="3" ry="3" fill="#806342"/><ellipse cx="137" cy="93" rx="3" ry="3" fill="#806342"/><ellipse cx="105" cy="100" rx="3" ry="3" fill="#806342"/><ellipse cx="118" cy="107" rx="3" ry="3" fill="#806342"/><ellipse cx="131" cy="92" rx="3" ry="3" fill="#806342"/><ellipse cx="99" cy="99" rx="3" ry="3" fill="#806342"/><path d="M172 100q-16-22-29-6 8 17 29 6q10-25 24-11-2 18-24 11" fill="#659360" stroke="none" stroke-width="2" stroke-linecap="round" stroke-linejoin="round"/></svg>