<svg xmlns="http://www.w3.org/2000/svg" viewBox="0 0 240 200" role="img"><title>小籠包插圖</title><rect width="240" height="200" rx="22" fill="#f4f3e9"/><ellipse cx="120" cy="181" rx="83" ry="8" fill="#425c3d" opacity=".07"/><ellipse cx="120" cy="133" rx="96" ry="41" fill="#b7976b"/><ellipse cx="120" cy="125" rx="88" ry="32" fill="#f2e4c1"/><g transform="translate(12 36) scale(0.6) rotate(0 120 100)"><path d="M56 121q-12-48 47-74 16-8 31 0 59 26 48 74-15 41-126 0Z" fill="#faf0d7" stroke="#dccbab" stroke-width="2" stroke-linecap="round" stroke-linejoin="round"/><path d="M104 47q-12 19-2 37m11-40q-5 15 0 29m8-30q3 18 13 29m-7-25q18 7 24 22" fill="none" stroke="#d9c3a1" stroke-width="3" stroke-linecap="round" stroke-linejoin="round"/></g><g transform="translate(79 46) scale(0.58) rotate(0 120 100)"><path d="M56 121q-12-48 47-74 16-8 31 0 59 26 48 74-15 41-126 0Z" fill="#faf0d7" stroke="#dccbab" stroke-width="2" stroke-linecap="round" stroke-linejoin="round"/><path d="M104 47q-12 19-2 37m11-40q-5 15 0 29m8-30q3 18 13 29m-7-25q18 7 24 22" fill="none" stroke="#d9c3a1" stroke-width="3" stroke-linecap="round" stroke-linejoin="round"/></g><g transform="translate(59 0) scale(0.55) rotate(0 120 100)"><path d="M56 121q-12-48 47-74 16-8 31 0 59 26 48 74-15 41-126 0Z" fill="#faf0d7" stroke="#dccbab" stroke-width="2" stroke-linecap="round" stroke-linejoin="round"/><path d="M104 47q-12 19-2 37m11-40q-5 15 0 29m8-30q3 18 13 29m-7-25q18 7 24 22" fill="none" stroke="#d9c3a1" stroke-width="3" stroke-linecap="round" stroke-linejoin="round"/></g></svg>