<svg xmlns="http://www.w3.org/2000/svg" viewBox="0 0 240 200" role="img"><title>無糖豆漿插圖</title><rect width="240" height="200" rx="22" fill="#f4f3e9"/><ellipse cx="120" cy="181" rx="83" ry="8" fill="#425c3d" opacity=".07"/><g transform="translate(-14 0) scale(0.9) rotate(0 120 100)"><path d="M65 62l19-31h70l22 31v107H65Z" fill="#fcf5df" stroke="#ced3bb" stroke-width="2" stroke-linecap="round" stroke-linejoin="round"/><path d="M65 62h111v28H65Z" fill="#b5a47c" stroke="none" stroke-width="2" stroke-linecap="round" stroke-linejoin="round"/><path d="M84 31v30m70-30 22 31" fill="none" stroke="#b5bda6" stroke-width="2" stroke-linecap="round" stroke-linejoin="round"/><text x="120" y="120" text-anchor="middle" font-family="Microsoft JhengHei,sans-serif" font-size="13" font-weight="700" fill="#425947">無糖豆漿</text><path d="M86 143h67" fill="none" stroke="#b5a47c" stroke-width="6" stroke-linecap="round" stroke-linejoin="round"/></g><g transform="translate(105 55) scale(0.54) rotate(0 120 100)"><path d="M68 49h101l-12 119H80Z" fill="#dfe9e3" stroke="#b6cac1" stroke-width="2" stroke-linecap="round" stroke-linejoin="round"/><path d="M74 77h89l-10 84H84Z" fill="#e1d3aa" stroke="none" stroke-width="2" stroke-linecap="round" stroke-linejoin="round"/><ellipse cx="118" cy="77" rx="44" ry="9" fill="#e1d3aa"/><path d="M88 68l6 69" fill="none" stroke="#ffffff80" stroke-width="5" stroke-linecap="round" stroke-linejoin="round"/></g><ellipse cx="75" cy="169" rx="6" ry="4" fill="#d2b47c"/><ellipse cx="87" cy="173" rx="6" ry="4" fill="#d2b47c"/><ellipse cx="99" cy="169" rx="6" ry="4" fill="#d2b47c"/><ellipse cx="111" cy="173" rx="6" ry="4" fill="#d2b47c"/><ellipse cx="123" cy="169" rx="6" ry="4" fill="#d2b47c"/><ellipse cx="135" cy="173" rx="6" ry="4" fill="#d2b47c"/></svg>