<svg xmlns="http://www.w3.org/2000/svg" viewBox="0 0 240 200" role="img"><title>吳郭魚插圖</title><rect width="240" height="200" rx="22" fill="#f4f3e9"/><ellipse cx="120" cy="181" rx="83" ry="8" fill="#425c3d" opacity=".07"/><ellipse cx="120" cy="140" rx="98" ry="35" fill="#e6ece5"/><ellipse cx="120" cy="134" rx="94" ry="31" fill="#fffdf6"/><ellipse cx="120" cy="134" rx="81" ry="23" fill="#edf0e5"/><path d="M43 107q59-69 142 0-76 66-142 0l-23 24v-48Z" fill="#899d92" stroke="#587b70" stroke-width="2" stroke-linecap="round" stroke-linejoin="round"/><path d="M145 86q-16 24 0 43" fill="none" stroke="#647f74" stroke-width="2" stroke-linecap="round" stroke-linejoin="round"/><ellipse cx="166" cy="103" rx="4" ry="4" fill="#243e38"/><path d="M77 68l26-15 12 22m-44 69 33 12 19-20" fill="#839c8c" stroke="none" stroke-width="2" stroke-linecap="round" stroke-linejoin="round"/><path d="M68 83q12 20 0 39" fill="none" stroke="#607b75" stroke-width="2" stroke-linecap="round" stroke-linejoin="round"/><path d="M80 83q12 20 0 39" fill="none" stroke="#607b75" stroke-width="2" stroke-linecap="round" stroke-linejoin="round"/><path d="M92 83q12 20 0 39" fill="none" stroke="#607b75" stroke-width="2" stroke-linecap="round" stroke-linejoin="round"/><path d="M104 83q12 20 0 39" fill="none" stroke="#607b75" stroke-width="2" stroke-linecap="round" stroke-linejoin="round"/><path d="M116 83q12 20 0 39" fill="none" stroke="#607b75" stroke-width="2" stroke-linecap="round" stroke-linejoin="round"/><path d="M128 83q12 20 0 39" fill="none" stroke="#607b75" stroke-width="2" stroke-linecap="round" stroke-linejoin="round"/><path d="M187 151q-16-22-29-6 8 17 29 6q10-25 24-11-2 18-24 11" fill="#659360" stroke="none" stroke-width="2" stroke-linecap="round" stroke-linejoin="round"/></svg>