<svg xmlns="http://www.w3.org/2000/svg" viewBox="0 0 240 200" role="img"><title>醬瓜／酸菜／雪裡紅插圖</title><rect width="240" height="200" rx="22" fill="#f4f3e9"/><ellipse cx="120" cy="181" rx="83" ry="8" fill="#425c3d" opacity=".07"/><path d="M39 109q8 63 81 64t81-64Z" fill="#91ada2" stroke="none" stroke-width="2" stroke-linecap="round" stroke-linejoin="round"/><ellipse cx="120" cy="109" rx="81" ry="28" fill="#f5f2e5"/><ellipse cx="120" cy="108" rx="72" ry="21" fill="#c1b180"/><path d="M61 89l16-8 8 10-15 7Z" fill="#9b9b57" stroke="none" stroke-width="2" stroke-linecap="round" stroke-linejoin="round"/><path d="M84 100l16-8 8 10-15 7Z" fill="#777f48" stroke="none" stroke-width="2" stroke-linecap="round" stroke-linejoin="round"/><path d="M107 111l16-8 8 10-15 7Z" fill="#b2a567" stroke="none" stroke-width="2" stroke-linecap="round" stroke-linejoin="round"/><path d="M130 93l16-8 8 10-15 7Z" fill="#9b9b57" stroke="none" stroke-width="2" stroke-linecap="round" stroke-linejoin="round"/><path d="M153 104l16-8 8 10-15 7Z" fill="#777f48" stroke="none" stroke-width="2" stroke-linecap="round" stroke-linejoin="round"/><path d="M66 115l16-8 8 10-15 7Z" fill="#b2a567" stroke="none" stroke-width="2" stroke-linecap="round" stroke-linejoin="round"/><path d="M89 97l16-8 8 10-15 7Z" fill="#9b9b57" stroke="none" stroke-width="2" stroke-linecap="round" stroke-linejoin="round"/><path d="M112 108l16-8 8 10-15 7Z" fill="#777f48" stroke="none" stroke-width="2" stroke-linecap="round" stroke-linejoin="round"/><path d="M135 90l16-8 8 10-15 7Z" fill="#b2a567" stroke="none" stroke-width="2" stroke-linecap="round" stroke-linejoin="round"/><path d="M158 101l16-8 8 10-15 7Z" fill="#9b9b57" stroke="none" stroke-width="2" stroke-linecap="round" stroke-linejoin="round"/><path d="M71 112l16-8 8 10-15 7Z" fill="#777f48" stroke="none" stroke-width="2" stroke-linecap="round" stroke-linejoin="round"/><path d="M94 94l16-8 8 10-15 7Z" fill="#b2a567" stroke="none" stroke-width="2" stroke-linecap="round" stroke-linejoin="round"/><path d="M117 105l16-8 8 10-15 7Z" fill="#9b9b57" stroke="none" stroke-width="2" stroke-linecap="round" stroke-linejoin="round"/><path d="M140 116l16-8 8 10-15 7Z" fill="#777f48" stroke="none" stroke-width="2" stroke-linecap="round" stroke-linejoin="round"/><path d="M163 98l16-8 8 10-15 7Z" fill="#b2a567" stroke="none" stroke-width="2" stroke-linecap="round" stroke-linejoin="round"/><path d="M76 109l16-8 8 10-15 7Z" fill="#9b9b57" stroke="none" stroke-width="2" stroke-linecap="round" stroke-linejoin="round"/><path d="M99 91l16-8 8 10-15 7Z" fill="#777f48" stroke="none" stroke-width="2" stroke-linecap="round" stroke-linejoin="round"/><path d="M45 127q70 48 147 0" fill="none" stroke="#c1d2c7" stroke-width="3" stroke-linecap="round" stroke-linejoin="round"/></svg>