<svg xmlns="http://www.w3.org/2000/svg" viewBox="0 0 240 200" role="img"><title>鮮肉水餃插圖</title><rect width="240" height="200" rx="22" fill="#f4f3e9"/><ellipse cx="120" cy="181" rx="83" ry="8" fill="#425c3d" opacity=".07"/><ellipse cx="120" cy="140" rx="98" ry="35" fill="#e6ece5"/><ellipse cx="120" cy="134" rx="94" ry="31" fill="#fffdf6"/><ellipse cx="120" cy="134" rx="81" ry="23" fill="#edf0e5"/><g transform="translate(10 8) scale(0.78) rotate(0 120 100)"><path d="M43 123Q46 58 108 68q41 10 53 55Z" fill="#f7e6c8" stroke="#c3a579" stroke-width="2" stroke-linecap="round" stroke-linejoin="round"/><path d="M51 114q17-34 39-40m-19 5 3 26m12-31 4 27m13-29 2 29m15-22-2 24m14-17-3 25" fill="none" stroke="#c9a777" stroke-width="2" stroke-linecap="round" stroke-linejoin="round"/></g><g transform="translate(75 18) scale(0.7) rotate(0 120 100)"><path d="M43 123Q46 58 108 68q41 10 53 55Z" fill="#f7e6c8" stroke="#c3a579" stroke-width="2" stroke-linecap="round" stroke-linejoin="round"/><path d="M51 114q17-34 39-40m-19 5 3 26m12-31 4 27m13-29 2 29m15-22-2 24m14-17-3 25" fill="none" stroke="#c9a777" stroke-width="2" stroke-linecap="round" stroke-linejoin="round"/></g></svg>