<svg xmlns="http://www.w3.org/2000/svg" viewBox="0 0 240 200" role="img"><title>白醋／烏醋插圖</title><rect width="240" height="200" rx="22" fill="#f4f3e9"/><ellipse cx="120" cy="181" rx="83" ry="8" fill="#425c3d" opacity=".07"/><g transform="translate(-18 12) scale(0.85) rotate(0 120 100)"><rect x="93" y="24" width="54" height="20" rx="5" fill="#8b9a72"/><path d="M97 44h46v28l26 20v76H72V92l25-20Z" fill="#ded9b4" stroke="#b6bd9e" stroke-width="2" stroke-linecap="round" stroke-linejoin="round"/><rect x="80" y="105" width="82" height="42" rx="5" fill="#fff8e6"/><text x="121" y="131" text-anchor="middle" font-family="Microsoft JhengHei,sans-serif" font-size="13" font-weight="700" fill="#425947">白醋</text><path d="M82 93v59" fill="none" stroke="#ffffff50" stroke-width="4" stroke-linecap="round" stroke-linejoin="round"/></g><g transform="translate(100 45) scale(0.65) rotate(0 120 100)"><rect x="93" y="24" width="54" height="20" rx="5" fill="#927151"/><path d="M97 44h46v28l26 20v76H72V92l25-20Z" fill="#716047" stroke="#b6bd9e" stroke-width="2" stroke-linecap="round" stroke-linejoin="round"/><rect x="80" y="105" width="82" height="42" rx="5" fill="#fff8e6"/><text x="121" y="131" text-anchor="middle" font-family="Microsoft JhengHei,sans-serif" font-size="13" font-weight="700" fill="#425947">烏醋</text><path d="M82 93v59" fill="none" stroke="#ffffff50" stroke-width="4" stroke-linecap="round" stroke-linejoin="round"/></g></svg>