<svg xmlns="http://www.w3.org/2000/svg" viewBox="0 0 240 200" role="img"><title>芋頭插圖</title><rect width="240" height="200" rx="22" fill="#f4f3e9"/><ellipse cx="120" cy="181" rx="83" ry="8" fill="#425c3d" opacity=".07"/><ellipse cx="120" cy="140" rx="98" ry="35" fill="#e6ece5"/><ellipse cx="120" cy="134" rx="94" ry="31" fill="#fffdf6"/><ellipse cx="120" cy="134" rx="81" ry="23" fill="#edf0e5"/><ellipse cx="95" cy="101" rx="65" ry="39" fill="#887761"/><path d="M56 77q-10 22 0 48" fill="none" stroke="#b6a590" stroke-width="2" stroke-linecap="round" stroke-linejoin="round"/><path d="M69 77q-10 22 0 48" fill="none" stroke="#b6a590" stroke-width="2" stroke-linecap="round" stroke-linejoin="round"/><path d="M82 77q-10 22 0 48" fill="none" stroke="#b6a590" stroke-width="2" stroke-linecap="round" stroke-linejoin="round"/><path d="M95 77q-10 22 0 48" fill="none" stroke="#b6a590" stroke-width="2" stroke-linecap="round" stroke-linejoin="round"/><path d="M108 77q-10 22 0 48" fill="none" stroke="#b6a590" stroke-width="2" stroke-linecap="round" stroke-linejoin="round"/><path d="M121 77q-10 22 0 48" fill="none" stroke="#b6a590" stroke-width="2" stroke-linecap="round" stroke-linejoin="round"/><path d="M134 77q-10 22 0 48" fill="none" stroke="#b6a590" stroke-width="2" stroke-linecap="round" stroke-linejoin="round"/><ellipse cx="158" cy="117" rx="32" ry="38" fill="#e7dbd0"/><path d="m137 91 3 3" fill="none" stroke="#ac8b9e" stroke-width="1.5" stroke-linecap="round" stroke-linejoin="round"/><path d="m150 108 3 3" fill="none" stroke="#ac8b9e" stroke-width="1.5" stroke-linecap="round" stroke-linejoin="round"/><path d="m163 125 3 3" fill="none" stroke="#ac8b9e" stroke-width="1.5" stroke-linecap="round" stroke-linejoin="round"/><path d="m176 92 3 3" fill="none" stroke="#ac8b9e" stroke-width="1.5" stroke-linecap="round" stroke-linejoin="round"/><path d="m148 109 3 3" fill="none" stroke="#ac8b9e" stroke-width="1.5" stroke-linecap="round" stroke-linejoin="round"/><path d="m161 126 3 3" fill="none" stroke="#ac8b9e" stroke-width="1.5" stroke-linecap="round" stroke-linejoin="round"/><path d="m174 93 3 3" fill="none" stroke="#ac8b9e" stroke-width="1.5" stroke-linecap="round" stroke-linejoin="round"/><path d="m146 110 3 3" fill="none" stroke="#ac8b9e" stroke-width="1.5" stroke-linecap="round" stroke-linejoin="round"/><path d="m159 127 3 3" fill="none" stroke="#ac8b9e" stroke-width="1.5" stroke-linecap="round" stroke-linejoin="round"/><path d="m172 94 3 3" fill="none" stroke="#ac8b9e" stroke-width="1.5" stroke-linecap="round" stroke-linejoin="round"/><path d="m144 111 3 3" fill="none" stroke="#ac8b9e" stroke-width="1.5" stroke-linecap="round" stroke-linejoin="round"/><path d="m157 128 3 3" fill="none" stroke="#ac8b9e" stroke-width="1.5" stroke-linecap="round" stroke-linejoin="round"/><path d="m170 95 3 3" fill="none" stroke="#ac8b9e" stroke-width="1.5" stroke-linecap="round" stroke-linejoin="round"/><path d="m142 112 3 3" fill="none" stroke="#ac8b9e" stroke-width="1.5" stroke-linecap="round" stroke-linejoin="round"/><path d="m155 129 3 3" fill="none" stroke="#ac8b9e" stroke-width="1.5" stroke-linecap="round" stroke-linejoin="round"/><path d="m168 96 3 3" fill="none" stroke="#ac8b9e" stroke-width="1.5" stroke-linecap="round" stroke-linejoin="round"/><path d="m140 113 3 3" fill="none" stroke="#ac8b9e" stroke-width="1.5" stroke-linecap="round" stroke-linejoin="round"/><path d="m153 130 3 3" fill="none" stroke="#ac8b9e" stroke-width="1.5" stroke-linecap="round" stroke-linejoin="round"/><path d="m166 97 3 3" fill="none" stroke="#ac8b9e" stroke-width="1.5" stroke-linecap="round" stroke-linejoin="round"/><path d="m138 114 3 3" fill="none" stroke="#ac8b9e" stroke-width="1.5" stroke-linecap="round" stroke-linejoin="round"/><path d="m151 131 3 3" fill="none" stroke="#ac8b9e" stroke-width="1.5" stroke-linecap="round" stroke-linejoin="round"/><path d="m164 98 3 3" fill="none" stroke="#ac8b9e" stroke-width="1.5" stroke-linecap="round" stroke-linejoin="round"/><path d="m177 115 3 3" fill="none" stroke="#ac8b9e" stroke-width="1.5" stroke-linecap="round" stroke-linejoin="round"/></svg>