<svg xmlns="http://www.w3.org/2000/svg" viewBox="0 0 240 200" role="img"><title>哈密瓜／美濃瓜插圖</title><rect width="240" height="200" rx="22" fill="#f4f3e9"/><ellipse cx="120" cy="181" rx="83" ry="8" fill="#425c3d" opacity=".07"/><ellipse cx="91" cy="103" rx="56" ry="56" fill="#c6bb8c"/><path d="M45 65q15 30 0 74" fill="none" stroke="#e0ddae" stroke-width="2" stroke-linecap="round" stroke-linejoin="round"/><path d="M60 65q15 30 0 74" fill="none" stroke="#e0ddae" stroke-width="2" stroke-linecap="round" stroke-linejoin="round"/><path d="M75 65q15 30 0 74" fill="none" stroke="#e0ddae" stroke-width="2" stroke-linecap="round" stroke-linejoin="round"/><path d="M90 65q15 30 0 74" fill="none" stroke="#e0ddae" stroke-width="2" stroke-linecap="round" stroke-linejoin="round"/><path d="M105 65q15 30 0 74" fill="none" stroke="#e0ddae" stroke-width="2" stroke-linecap="round" stroke-linejoin="round"/><path d="M120 65q15 30 0 74" fill="none" stroke="#e0ddae" stroke-width="2" stroke-linecap="round" stroke-linejoin="round"/><path d="M135 65q15 30 0 74" fill="none" stroke="#e0ddae" stroke-width="2" stroke-linecap="round" stroke-linejoin="round"/><path d="M104 134l88-78q42 77-30 110Z" fill="#7c9b61" stroke="none" stroke-width="2" stroke-linecap="round" stroke-linejoin="round"/><path d="M112 133l76-66q31 64-27 90Z" fill="#e8b077" stroke="none" stroke-width="2" stroke-linecap="round" stroke-linejoin="round"/></svg>